# xmcd
#
# Track frame offsets: 
#        150
#        28185
#        45665
#        60010
#        76815
#        91500
#        101185
#        119383
#        135310
#        153373
#
# Disc length: 2222 seconds
#
# Revision: 1
# Processed by: cddbd v1.5.2PL0 Copyright (c) Steve Scherf et al.
# Submitted via: ExactAudioCopy v0.95b3
#
DISCID=6b08ac0a
DTITLE=Stuart A. Staples - Leaving Songs
DYEAR=2006
DGENRE=Alternative
TTITLE0=Goodbye To Old Friends
TTITLE1=There Is A Path
TTITLE2=Which Way The Wind
TTITLE3=This Road Is Long
TTITLE4=One More Time
TTITLE5=Dance With An Old Man
TTITLE6=That Leaving Feeling
TTITLE7=Already Gone
TTITLE8=This Old Town
TTITLE9=Pulling In To The Sea
EXTD=YEAR: 2006
EXTT0=
EXTT1=
EXTT2=
EXTT3=
EXTT4=
EXTT5=
EXTT6=
EXTT7=
EXTT8=
EXTT9=
PLAYORDER=
